<svg width="16" height="16" viewBox="0 0 16 16" fill="none" xmlns="http://www.w3.org/2000/svg">
<path fill-rule="evenodd" clip-rule="evenodd" d="M6.90891 10.1818C8.71639 10.1818 10.1816 8.71657 10.1816 6.9091C10.1816 5.10162 8.71639 3.63637 6.90891 3.63637C5.10144 3.63637 3.63619 5.10162 3.63619 6.9091C3.63619 8.71657 5.10144 10.1818 6.90891 10.1818ZM6.90891 11.6364C9.51971 11.6364 11.6362 9.5199 11.6362 6.9091C11.6362 4.2983 9.51971 2.18182 6.90891 2.18182C4.29811 2.18182 2.18164 4.2983 2.18164 6.9091C2.18164 9.5199 4.29811 11.6364 6.90891 11.6364Z" fill="#9A9A97"/>
<path fill-rule="evenodd" clip-rule="evenodd" d="M12.4047 13.7971L9.11186 10.5042L10.1404 9.47568L13.4332 12.7685C13.7173 13.0526 13.7173 13.513 13.4332 13.7971C13.1492 14.0811 12.6887 14.0811 12.4047 13.7971Z" fill="#9A9A97"/>
</svg>
