<svg width="30" height="30" viewBox="0 0 30 30" fill="none" xmlns="http://www.w3.org/2000/svg">
<circle cx="15" cy="15" r="15" fill="#1A192D"/>
<path fill-rule="evenodd" clip-rule="evenodd" d="M14.2766 7.45864C14.676 7.05924 15.3235 7.05924 15.7229 7.45864L21.1775 12.9132C21.5769 13.3126 21.5769 13.9601 21.1775 14.3595C20.7781 14.7589 20.1305 14.7589 19.7311 14.3595L14.9997 9.62817L10.2684 14.3595C9.86897 14.7589 9.22141 14.7589 8.82201 14.3595C8.42261 13.9601 8.42261 13.3126 8.82201 12.9132L14.2766 7.45864Z" fill="white"/>
<path fill-rule="evenodd" clip-rule="evenodd" d="M14.9993 7.15909C15.5641 7.15909 16.022 7.61698 16.022 8.18182V23.1818C16.022 23.7467 15.5641 24.2045 14.9993 24.2045C14.4345 24.2045 13.9766 23.7467 13.9766 23.1818V8.18182C13.9766 7.61698 14.4345 7.15909 14.9993 7.15909Z" fill="white"/>
</svg>
